<?xml version="1.0" standalone="no"?>
<!DOCTYPE svg PUBLIC "-//W3C//DTD SVG 20010904//EN"
 "http://www.w3.org/TR/2001/REC-SVG-20010904/DTD/svg10.dtd">
<svg version="1.0" xmlns="http://www.w3.org/2000/svg"
 width="501.000000pt" height="501.000000pt" viewBox="0 0 501.000000 501.000000"
 preserveAspectRatio="xMidYMid meet">
<metadata>
Created by potrace 1.14, written by Peter Selinger 2001-2017
</metadata>
<g transform="translate(0.000000,501.000000) scale(0.100000,-0.100000)"
fill="#000000" stroke="none">
<path d="M1452 3950 c-13 -53 -9 -233 6 -238 6 -2 9 -9 6 -16 -3 -7 2 -39 9
-72 21 -88 15 -264 -10 -334 -29 -78 -74 -166 -126 -241 -215 -315 -272 -412
-311 -529 -83 -249 -16 -594 146 -754 l40 -39 -11 -76 c-6 -42 -13 -103 -17
-136 -3 -33 -10 -62 -14 -65 -5 -3 -8 -25 -8 -50 1 -25 -2 -67 -6 -94 -6 -46
-4 -52 20 -73 26 -22 129 -60 184 -68 14 -2 63 -12 110 -23 47 -11 99 -23 115
-25 17 -3 37 -8 45 -11 8 -3 33 -8 55 -11 22 -3 87 -12 145 -20 178 -24 284
-29 605 -29 281 0 404 5 475 19 14 3 49 7 78 10 29 3 65 7 80 9 15 3 45 7 67
11 23 3 51 7 62 9 12 3 47 7 78 11 52 5 137 21 160 29 6 2 25 7 43 11 18 4 35
11 37 15 3 4 5 35 6 69 1 46 5 62 18 66 44 14 46 76 2 90 -17 5 -20 17 -23 81
-2 42 -1 79 2 83 3 3 28 17 55 30 150 74 247 168 305 296 12 28 26 57 30 66 4
8 18 55 31 105 17 68 22 117 23 209 0 66 -3 134 -7 152 -18 93 -63 205 -150
373 -165 317 -198 405 -200 528 -2 111 5 145 59 312 29 92 37 132 38 197 1 45
-4 87 -9 92 -8 8 -11 2 -13 -19 -4 -56 -57 -154 -124 -232 -88 -101 -155 -213
-182 -302 -16 -53 -12 -175 9 -246 8 -30 17 -62 19 -70 9 -33 35 -100 60 -154
14 -31 26 -59 27 -64 0 -4 4 -11 9 -17 17 -22 54 -93 82 -160 61 -143 31 -303
-78 -421 -22 -24 -95 -64 -117 -64 -1 0 -29 20 -62 45 -33 25 -67 45 -75 45
-9 0 -20 4 -25 9 -18 18 -192 68 -292 85 -18 4 -46 8 -61 11 -124 21 -266 29
-517 30 -225 0 -360 -8 -472 -29 -18 -3 -48 -9 -65 -12 -66 -11 -214 -56 -267
-80 -29 -14 -60 -22 -70 -19 -20 6 -77 91 -98 148 -10 26 -15 74 -15 127 0
110 19 152 151 340 80 113 164 280 187 370 31 126 12 230 -71 374 -25 44 -45
83 -45 88 0 4 -3 8 -8 8 -4 0 -18 20 -32 45 -14 25 -28 45 -32 45 -5 0 -8 7
-8 15 0 9 -7 29 -15 45 -8 16 -19 53 -23 82 l-8 53 -12 -45z m33 -127 c9 -20
32 -61 51 -91 20 -29 34 -55 32 -56 -10 -9 -78 -13 -79 -5 -1 5 -2 12 -4 17
-5 18 -19 118 -17 125 1 4 -3 7 -9 7 -8 0 -9 4 0 13 6 8 8 17 4 20 -3 4 -3 7
0 7 4 0 14 -17 22 -37z"/>
</g>
</svg>
